# xmcd CD database file
#
# Track frame offsets:
#	150
#	17610
#	32947
#	46685
#	59718
#
# Disc length: 1005 seconds
#
# Revision: 0
# Processed by: cddbd v1.5.1PL0 Copyright (c) Steve Scherf et al.
# Submitted via: CDex 1.51
#
DISCID=3b03eb05
DTITLE=Bluejuice - The Good Luck Pig
DYEAR=2005
DGENRE=Hip-Hop
TTITLE0=Mad Squabbles
TTITLE1=Bounce Back
TTITLE2=The Madness
TTITLE3=Unemployed
TTITLE4=Strivin'
EXTD=YEAR: 2005
EXTT0=
EXTT1=
EXTT2=
EXTT3=
EXTT4=
PLAYORDER=
